<?xml version="1.0" standalone="no"?>
<!DOCTYPE svg PUBLIC "-//W3C//DTD SVG 20010904//EN"
 "http://www.w3.org/TR/2001/REC-SVG-20010904/DTD/svg10.dtd">
<svg version="1.0" xmlns="http://www.w3.org/2000/svg"
 width="1164.000000pt" height="366.000000pt" viewBox="0 0 1164.000000 366.000000"
 preserveAspectRatio="xMidYMid meet">

<g id="it" transform="translate(0.000000,366.000000) scale(0.100000,-0.100000)"
fill="#a92687" stroke="none">
<path d="M1134 3636 c-108 -38 -191 -91 -280 -180 -97 -98 -149 -173 -225
-326 -49 -99 -189 -453 -189 -478 0 -24 -192 -117 -328 -157 l-92 -28 0 -179
c0 -166 1 -179 18 -174 9 3 29 8 45 12 l27 6 0 -72 0 -72 46 7 c26 3 53 9 60
12 10 4 8 -12 -7 -64 -59 -201 -209 -834 -209 -881 0 -8 19 -12 59 -12 l59 0
-9 -42 c-5 -24 -11 -53 -14 -65 l-5 -23 185 0 c157 0 185 2 185 15 0 16 102
320 141 418 12 32 25 54 29 50 3 -4 19 -37 33 -73 15 -36 45 -87 67 -115 22
-27 55 -73 73 -100 74 -110 194 -189 338 -222 64 -14 89 -15 186 -5 61 7 119
15 128 18 13 6 15 29 13 183 l-3 176 -25 -3 c-14 -1 -35 -5 -47 -8 -22 -4 -23
-2 -23 70 l0 74 -37 -9 c-54 -12 -158 -11 -188 3 -51 23 -77 90 -98 257 l-13
100 98 86 c99 86 203 208 292 340 106 158 114 326 19 406 -17 14 -38 42 -48
63 -10 20 -33 51 -51 68 l-33 31 55 60 c64 69 145 182 180 249 48 93 66 228
43 313 -14 51 -70 140 -79 125 -4 -6 -21 13 -41 47 -65 111 -193 149 -335 99z
m203 -115 c41 -21 56 -66 51 -150 -8 -128 -63 -222 -249 -424 -103 -110 -300
-287 -419 -373 l-80 -59 -45 -143 c-26 -79 -48 -149 -51 -155 -2 -7 14 -19 35
-28 l39 -17 50 72 c177 251 375 409 510 408 132 -1 159 -91 76 -253 -71 -138
-210 -293 -405 -454 l-37 -30 24 -125 c55 -284 90 -378 163 -442 50 -44 133
-79 202 -85 l59 -6 0 -62 c0 -72 -3 -75 -87 -75 -126 0 -270 62 -335 144 -81
102 -113 204 -157 497 -17 111 -33 204 -35 207 -9 8 -106 -153 -165 -273 -57
-116 -135 -314 -182 -463 l-23 -72 -72 0 -72 0 19 88 c48 220 153 615 262 994
10 35 9 40 -17 67 l-27 28 -67 -27 c-37 -16 -91 -35 -120 -44 l-52 -15 0 67 0
67 62 19 c77 24 239 103 294 144 38 28 45 40 114 228 87 236 142 355 209 455
158 237 391 364 528 290z"/>
<path d="M1094 3362 c-75 -49 -136 -117 -198 -221 -41 -71 -126 -259 -126
-279 0 -4 15 -17 33 -28 l32 -21 69 61 c113 99 274 284 306 351 40 84 44 117
19 149 -29 36 -65 33 -135 -12z"/>
<path d="M1033 2475 c-92 -62 -182 -162 -288 -323 l-48 -72 23 -25 c13 -14 31
-25 40 -25 24 0 191 150 260 233 33 40 73 97 90 128 29 56 30 56 10 74 -11 10
-20 24 -20 32 0 20 -10 16 -67 -22z"/>
<path d="M5037 3287 c-64 -114 -187 -360 -251 -502 l-64 -140 -133 -5 -134 -5
-45 -175 -46 -175 63 -3 c35 -2 63 -4 63 -5 0 -1 -7 -27 -15 -57 -19 -72 -20
-70 20 -70 19 0 35 -3 35 -6 0 -4 -21 -70 -46 -148 -75 -230 -95 -331 -101
-501 -9 -246 18 -330 160 -506 150 -185 246 -234 457 -234 106 1 122 3 195 33
96 38 203 116 266 194 50 64 117 192 144 278 9 30 19 62 21 70 3 8 15 -11 29
-44 13 -33 40 -75 59 -95 18 -20 46 -59 60 -86 27 -53 73 -87 181 -137 44 -20
65 -23 175 -22 69 0 159 4 201 9 106 11 115 4 84 -62 l-24 -52 32 -5 c41 -7
339 -27 342 -24 2 2 56 181 120 398 198 664 247 886 249 1120 1 159 -7 188
-71 257 -15 16 -35 42 -43 58 -21 39 -88 104 -131 126 -145 74 -405 30 -674
-114 -154 -82 -375 -269 -375 -317 0 -11 20 -43 45 -69 25 -26 45 -53 45 -59
0 -6 19 -32 41 -59 l42 -47 -34 -26 c-137 -103 -273 -289 -319 -435 -15 -49
-34 -65 -75 -65 l-31 0 4 65 4 65 -40 0 c-22 0 -74 -4 -114 -9 -40 -6 -102
-13 -139 -16 l-65 -6 -23 -116 c-27 -141 -51 -206 -93 -257 -50 -61 -109 -78
-190 -56 -33 9 -39 16 -49 53 -14 52 -6 167 22 297 19 87 105 359 159 504 l22
59 137 -7 c75 -4 145 -9 156 -12 17 -4 31 20 102 168 45 95 85 181 89 191 5
15 -2 17 -69 17 l-76 0 26 56 c14 30 23 58 20 60 -3 3 -44 9 -91 12 l-86 7
114 232 115 232 -70 23 -69 22 20 33 c11 19 20 38 20 43 0 5 -66 30 -147 55
-82 26 -153 48 -160 50 -7 2 -27 -24 -46 -58z m148 -93 l52 -17 -110 -226
c-120 -248 -197 -416 -197 -430 0 -6 20 -3 45 5 33 12 76 15 164 12 66 -1 122
-6 125 -9 3 -3 -6 -33 -20 -66 l-26 -60 -106 -7 c-58 -3 -136 -6 -173 -6 l-67
0 -91 -272 c-123 -371 -131 -404 -138 -538 -13 -256 47 -381 206 -430 93 -29
155 -26 229 11 71 35 105 71 143 154 25 54 60 166 74 236 4 24 10 27 72 32 37
4 68 5 69 4 4 -3 -70 -224 -90 -271 -51 -116 -159 -241 -242 -281 -176 -83
-408 -45 -518 86 -86 102 -119 289 -86 494 24 155 143 545 219 718 12 27 21
51 21 53 0 2 -52 4 -115 4 -71 0 -115 4 -115 10 0 6 7 37 17 70 l16 60 126 0
127 0 53 128 c74 175 260 552 273 552 6 0 35 -7 63 -16z m1632 -515 c43 -14
99 -78 114 -131 7 -26 9 -72 5 -117 -13 -160 -183 -846 -307 -1243 l-40 -128
-64 0 c-43 0 -65 4 -65 12 0 6 16 60 35 119 19 60 35 113 35 119 0 25 -74 8
-153 -34 -124 -67 -226 -98 -322 -98 -144 0 -243 51 -290 147 -25 51 -27 62
-23 152 4 82 10 111 37 175 78 186 213 325 405 418 118 58 207 80 326 79 78 0
103 -3 196 -24 l32 -7 22 93 c60 252 30 342 -112 341 -141 -1 -392 -113 -550
-245 l-48 -40 -39 34 c-22 19 -40 37 -40 41 -2 12 127 111 222 172 224 144
478 211 624 165z"/>
<path d="M6350 2005 c-218 -49 -404 -222 -456 -425 -28 -112 -1 -187 85 -233
66 -37 123 -43 201 -23 77 20 248 108 351 180 l75 54 47 185 c26 102 47 190
47 196 0 6 -14 18 -31 27 -89 45 -219 61 -319 39z m186 -262 c-29 -123 -30
-124 -123 -185 -109 -71 -203 -115 -265 -123 -55 -8 -56 -6 -28 61 33 75 117
171 191 216 40 25 148 57 193 57 37 1 38 0 32 -26z"/>
<path d="M11190 2870 c-243 -43 -535 -325 -616 -596 -12 -39 -18 -93 -18 -159
-1 -84 3 -107 22 -147 31 -63 118 -141 228 -205 130 -76 151 -93 175 -141 21
-42 21 -45 4 -87 -39 -103 -226 -187 -343 -155 -34 9 -50 22 -78 60 -20 28
-38 50 -40 50 -3 0 -74 -36 -159 -81 -154 -80 -155 -81 -155 -115 0 -44 28
-100 83 -163 23 -27 55 -68 71 -91 119 -173 439 -204 710 -68 131 65 240 161
309 270 72 114 95 219 73 327 -20 97 -42 143 -127 261 -75 104 -154 178 -251
235 -27 15 -48 32 -48 38 0 47 183 267 221 267 14 0 15 -7 9 -42 -5 -24 -7
-44 -5 -46 4 -4 329 -71 331 -69 19 29 37 124 41 212 6 128 -9 179 -70 249
-20 22 -51 63 -69 91 -56 84 -177 127 -298 105z m152 -126 c14 -8 37 -28 50
-46 20 -29 23 -45 23 -128 l0 -95 -30 3 c-16 2 -46 7 -66 13 -32 8 -37 14 -42
45 -8 48 -42 84 -79 84 -16 0 -48 -10 -71 -21 -80 -41 -229 -213 -289 -334
-27 -54 -46 -155 -28 -155 5 0 27 -17 48 -37 21 -21 81 -60 133 -88 212 -113
297 -258 254 -434 -22 -91 -72 -168 -160 -249 -184 -168 -455 -229 -631 -142
-54 26 -114 81 -114 103 0 4 32 23 71 42 l71 36 35 -27 c51 -39 98 -53 174
-54 131 0 279 70 360 172 62 79 75 157 38 238 -29 65 -71 103 -189 175 -151
91 -187 119 -211 167 -18 36 -21 54 -17 132 5 103 32 174 108 286 168 247 417
386 562 314z"/>
<path d="M3788 2795 c-100 -17 -223 -58 -323 -108 -167 -83 -397 -260 -425
-326 -11 -28 -10 -33 18 -68 16 -21 39 -47 51 -57 12 -11 21 -25 21 -33 0 -7
17 -31 37 -54 l37 -41 -44 -36 c-145 -117 -263 -287 -320 -462 -51 -158 -25
-320 68 -422 22 -24 49 -62 61 -85 31 -63 137 -130 241 -153 53 -12 115 -11
320 5 101 8 109 1 76 -63 l-26 -51 33 -5 c17 -3 75 -8 127 -11 52 -3 123 -8
156 -11 l62 -6 17 58 c9 33 62 210 117 394 168 563 226 819 235 1046 7 156 -5
203 -70 282 -23 29 -58 73 -78 99 -44 59 -114 98 -199 112 -78 13 -93 13 -192
-4z m232 -122 c124 -51 140 -179 61 -513 -95 -402 -190 -755 -273 -1020 l-24
-75 -58 -3 c-33 -2 -63 1 -67 5 -5 5 7 57 26 115 19 59 35 114 35 123 0 29
-61 16 -159 -34 -53 -27 -117 -56 -143 -65 -201 -67 -387 -19 -461 119 -18 33
-22 56 -21 135 1 82 5 106 32 175 89 227 280 404 517 482 106 34 268 42 369
19 52 -13 71 -14 77 -5 8 13 45 189 55 261 8 62 -23 130 -68 149 -118 49 -455
-78 -637 -241 l-33 -30 -39 31 c-21 17 -41 34 -44 39 -7 11 137 123 227 179
248 150 492 211 628 154z"/>
<path d="M3585 2013 c-245 -32 -460 -229 -506 -463 -10 -52 -9 -66 5 -105 23
-58 73 -101 143 -121 82 -24 164 -7 297 60 96 49 243 143 265 170 12 15 101
351 101 382 0 17 -12 26 -57 43 -96 35 -167 45 -248 34z m145 -260 c0 -9 -7
-43 -17 -76 -15 -56 -19 -61 -90 -108 -129 -88 -305 -160 -329 -136 -15 14 63
146 120 203 67 66 117 97 199 119 74 20 117 19 117 -2z"/>
<path d="M2059 2796 c-2 -2 -74 -13 -159 -26 -85 -12 -158 -25 -161 -28 -4 -4
-17 -85 -29 -181 -12 -96 -48 -346 -80 -555 -59 -380 -114 -767 -125 -881 -3
-33 -9 -78 -12 -99 l-5 -39 55 7 56 6 -6 -70 c-3 -39 -2 -70 3 -70 48 1 359
62 366 72 4 7 8 25 8 39 0 82 71 355 130 504 94 237 217 438 358 585 72 75 91
89 109 84 l22 -6 -20 -40 c-11 -22 -19 -41 -17 -43 2 -1 74 -25 160 -53 114
-36 160 -46 167 -38 21 27 61 118 86 199 23 74 27 100 23 170 -5 90 -33 169
-73 207 -13 12 -36 46 -50 76 -47 95 -145 139 -266 116 -102 -19 -264 -112
-378 -217 l-44 -40 6 30 c3 17 9 61 12 99 l7 69 -56 -7 -56 -7 5 43 c3 24 8
55 10 71 4 23 1 27 -19 27 -12 0 -25 -2 -27 -4z m-79 -146 c0 -27 -46 -351
-65 -460 -20 -112 -20 -109 22 -127 36 -15 38 -14 53 8 35 55 145 197 203 262
184 208 401 324 510 272 51 -24 79 -85 78 -169 0 -92 -35 -216 -59 -216 -5 0
-31 7 -60 15 l-51 15 20 57 c25 74 24 99 -7 129 -19 20 -31 24 -52 19 -101
-24 -412 -329 -523 -512 -120 -198 -236 -508 -273 -728 l-12 -70 -68 -13 c-37
-8 -70 -11 -74 -8 -7 7 50 418 118 851 26 171 58 389 71 485 12 96 25 178 29
182 5 6 83 23 128 27 6 0 12 -8 12 -19z"/>
<path d="M8235 2762 c-92 -28 -151 -57 -224 -111 -65 -49 -185 -167 -251 -249
l-35 -42 -3 132 c-2 73 -5 134 -7 137 -2 2 -22 -1 -45 -7 l-40 -10 0 69 c0 47
-4 71 -13 74 -10 4 -186 -42 -349 -91 -16 -5 -18 -22 -18 -167 0 -215 -5 -258
-180 -1390 -82 -537 -150 -978 -150 -980 0 -2 25 -2 56 1 l57 5 -7 -67 -8 -66
29 0 c38 0 293 20 318 25 18 4 24 21 43 122 37 193 129 598 169 747 l38 139
85 -2 c104 -2 175 16 284 70 213 108 427 297 556 490 83 126 193 353 225 464
35 121 45 295 21 377 -17 56 -67 138 -86 138 -5 0 -21 22 -34 48 -29 58 -82
107 -145 135 -64 29 -205 33 -286 9z m269 -132 c156 -106 123 -401 -82 -745
-97 -163 -266 -354 -407 -460 -74 -56 -192 -118 -264 -139 -70 -21 -184 -20
-245 0 -27 9 -51 13 -56 8 -27 -27 -157 -542 -232 -913 -26 -128 -29 -131
-119 -131 -46 0 -49 1 -44 22 8 34 250 1614 279 1823 14 99 28 249 32 333 l7
152 41 11 c23 5 54 14 70 20 16 5 32 7 34 4 10 -10 -19 -365 -43 -531 -14 -93
-28 -188 -31 -210 -6 -40 -5 -42 26 -53 18 -6 36 -11 41 -11 4 0 32 47 62 104
121 228 256 423 377 544 149 149 288 215 436 209 61 -3 78 -8 118 -37z"/>
<path d="M8234 2516 c-105 -33 -240 -159 -362 -338 -121 -178 -248 -416 -324
-607 -35 -88 -29 -109 37 -141 89 -43 223 -14 347 76 118 85 269 249 360 390
40 62 103 192 126 261 89 258 6 418 -184 359z m96 -261 c0 -34 -53 -165 -102
-250 -65 -115 -160 -236 -247 -317 -69 -64 -161 -134 -161 -123 0 14 89 181
158 295 108 180 214 314 302 382 40 32 50 34 50 13z"/>
<path d="M9895 2766 c-178 -50 -310 -146 -482 -351 l-42 -50 -1 76 c0 42 -3
103 -6 137 l-7 60 -40 -14 c-22 -8 -41 -14 -43 -14 -2 0 -4 34 -4 75 0 48 -4
75 -11 75 -8 0 -260 -69 -349 -95 -13 -4 -15 -32 -15 -172 -1 -214 2 -196
-176 -1353 -82 -536 -150 -984 -152 -994 -2 -18 4 -19 56 -17 l59 3 -6 -29
c-21 -106 -21 -103 15 -103 42 0 286 20 315 26 16 3 24 14 29 41 36 203 164
757 210 915 l15 53 79 -3 c139 -6 259 38 444 162 230 154 377 327 524 614 82
161 120 281 134 424 9 98 8 123 -6 178 -18 72 -40 113 -80 150 -15 14 -35 41
-45 60 -26 50 -87 106 -145 131 -63 28 -196 36 -270 15z m195 -106 c19 -5 52
-24 74 -41 68 -57 94 -151 76 -284 -55 -402 -455 -912 -813 -1036 -97 -34
-205 -39 -281 -13 -26 9 -49 14 -52 11 -23 -23 -141 -479 -210 -809 l-48 -226
-29 -6 c-50 -10 -107 -7 -107 6 0 7 63 422 140 923 156 1018 170 1122 170
1281 l0 111 62 18 c34 9 68 19 75 22 32 13 -3 -432 -58 -721 -12 -66 -14 -63
28 -77 31 -10 39 -9 45 2 5 8 41 70 79 139 208 367 375 562 567 659 85 43 210
61 282 41z"/>
<path d="M9879 2516 c-80 -31 -126 -62 -198 -135 -156 -157 -348 -472 -481
-789 l-43 -102 28 -30 c37 -39 84 -53 158 -48 288 18 724 543 754 906 6 80
-17 154 -59 185 -33 25 -111 31 -159 13z m90 -287 c-21 -91 -106 -256 -187
-364 -89 -116 -292 -309 -308 -292 -13 13 139 284 243 435 93 134 217 262 254
262 4 0 3 -18 -2 -41z"/>
</g>
</svg>
